HIERARCHY
ROOT Hips
{
	OFFSET 0.00 0.00 0.00
	CHANNELS 6 Xposition Yposition Zposition Xrotation Yrotation Zrotation
	JOINT Spine
	{
		OFFSET 0.00000 2.10617 3.15926
		CHANNELS 3 Xrotation Yrotation Zrotation
		JOINT Spine1
		{
			OFFSET 0.00000 0.73147 4.14835
			CHANNELS 3 Xrotation Yrotation Zrotation
			JOINT Spine2
			{
				OFFSET 0.00000 0.36713 4.19631
				CHANNELS 3 Xrotation Yrotation Zrotation
				JOINT Spine3
				{
					OFFSET 0.00000 0.00000 4.21234
					CHANNELS 3 Xrotation Yrotation Zrotation
					JOINT Neck
					{
						OFFSET 0.00000 -1.57962 11.05740
						CHANNELS 3 Xrotation Yrotation Zrotation
						JOINT Head
						{
							OFFSET 0.00000 -1.00576 5.70398
							CHANNELS 3 Xrotation Yrotation Zrotation
							End Site
							{
								OFFSET 0.00000 0.00001 6.81873
							}
						}
					}
					JOINT RightShoulder
					{
						OFFSET -1.28113 -2.13521 6.91810
						CHANNELS 3 Xrotation Yrotation Zrotation
						JOINT RightArm
						{
							OFFSET -6.36294 0.00000 0.00000
							CHANNELS 3 Xrotation Yrotation Zrotation
							JOINT RightForeArm
							{
								OFFSET -10.12221 0.00000 0.00000
								CHANNELS 3 Xrotation Yrotation Zrotation
								JOINT RightHand
								{
									OFFSET -10.76713 0.00000 0.00000
									CHANNELS 3 Xrotation Yrotation Zrotation
									JOINT RightHandEnd
									{
										OFFSET -2.78915 0.00000 0.00000
										CHANNELS 3 Xrotation Yrotation Zrotation
										End Site
										{
											OFFSET -2.78915 0.00000 0.00000
										}
									}
									JOINT RightHandThumb1
									{
										OFFSET -1.11566 -1.85944 -0.74377
										CHANNELS 3 Yrotation Xrotation Zrotation
										End Site
										{
											OFFSET -2.69412 -0.72189 0.00000
										}
									}
								}
							}
						}
					}
					JOINT LeftShoulder
					{
						OFFSET 1.28113 -2.13521 6.91810
						CHANNELS 3 Xrotation Yrotation Zrotation
						JOINT LeftArm
						{
							OFFSET 6.36294 0.00000 0.00000
							CHANNELS 3 Xrotation Yrotation Zrotation
							JOINT LeftForeArm
							{
								OFFSET 10.12221 0.00000 0.00000
								CHANNELS 3 Xrotation Yrotation Zrotation
								JOINT LeftHand
								{
									OFFSET 10.76713 0.00000 0.00000
									CHANNELS 3 Xrotation Yrotation Zrotation
									JOINT LeftHandEnd
									{
										OFFSET 2.78915 0.00000 0.00000
										CHANNELS 3 Xrotation Yrotation Zrotation
										End Site
										{
											OFFSET 2.78915 0.00000 0.00000
										}
									}
									JOINT LeftHandThumb1
									{
										OFFSET 1.11566 -1.85944 -0.74377
										CHANNELS 3 Yrotation Xrotation Zrotation
										End Site
										{
											OFFSET 2.69412 -0.72189 0.00000
										}
									}
								}
							}
						}
					}
				}
			}
		}
	}
	JOINT RightUpLeg
	{
		OFFSET -3.80068 0.00000 -1.11031
		CHANNELS 3 Xrotation Yrotation Zrotation
		JOINT RightLeg
		{
			OFFSET 0.00001 0.00000 -17.00167
			CHANNELS 3 Xrotation Yrotation Zrotation
			JOINT RightFoot
			{
				OFFSET 0.00001 0.00000 -17.96841
				CHANNELS 3 Xrotation Yrotation Zrotation
				JOINT RightToeBase
				{
					OFFSET 0.00000 -5.07501 -1.84715
					CHANNELS 3 Xrotation Yrotation Zrotation
					End Site
					{
						OFFSET 0.00000 -3.07471 -0.00000
					}
				}
			}
		}
	}
	JOINT LeftUpLeg
	{
		OFFSET 3.80068 0.00000 -1.11031
		CHANNELS 3 Xrotation Yrotation Zrotation
		JOINT LeftLeg
		{
			OFFSET 0.00001 0.00000 -17.00167
			CHANNELS 3 Xrotation Yrotation Zrotation
			JOINT LeftFoot
			{
				OFFSET 0.00001 0.00000 -17.96841
				CHANNELS 3 Xrotation Yrotation Zrotation
				JOINT LeftToeBase
				{
					OFFSET 0.00000 -5.07501 -1.84715
					CHANNELS 3 Xrotation Yrotation Zrotation
					End Site
					{
						OFFSET 0.00000 -3.07471 -0.00000
					}
				}
			}
		}
	}
}
MOTION
Frames: 15
Frame Time: 0.008342
 24.9867 -76.1306 36.8731 -0.4267 -0.4337 -85.8812 -0.0674 1.8343 -0.6173 -0.3786 0.8937 -0.1855 3.9212 -1.3524 -4.9656 1.8490 0.8503 -1.3534 0.9679 5.2842 -12.4760 -6.8091 -3.9075 -15.4214 10.6691 -9.8766 7.8155 31.8397 -57.5152 33.2706 0.0000 0.0000 22.0363 -9.4754 11.2004 4.3868 0.0000 -0.0000 -0.0000 0.0000 0.0000 -0.0000 12.3622 7.9530 -8.0108 22.4121 61.3833 -28.9046 -0.0000 -0.0000 -18.8360 -13.2163 -14.0384 4.8708 -0.0000 -0.0000 0.0000 -0.0000 -0.0000 -0.0000 -19.3518 -6.3535 -20.1532 21.5599 0.0000 0.0000 -4.3954 13.8702 -17.5944 3.3163 0.0000 0.0000 0.1132 1.1198 18.4801 42.3469 0.0000 0.0000 -6.9617 26.6731 24.3742 -23.8412 0.0000 -0.0000
 24.7444 -76.2082 36.8877 -0.1874 -0.3871 -86.5502 -0.1476 1.5093 -0.5918 -0.4158 0.8426 -0.1879 3.9099 -1.3949 -4.8851 1.8410 0.8219 -1.3098 1.0473 5.3202 -12.3416 -6.7746 -3.8122 -15.3107 10.6300 -9.8119 7.7545 31.7000 -57.5755 33.1726 0.0000 0.0000 22.2751 -9.4109 11.2853 4.4004 -0.0000 -0.0000 -0.0000 -0.0000 -0.0000 -0.0000 12.4456 7.8480 -7.9174 23.1444 62.1343 -29.5941 -0.0000 -0.0000 -18.1940 -13.0181 -13.4769 5.0008 0.0000 -0.0000 -0.0000 -0.0000 0.0000 -0.0000 -18.8753 -6.6636 -19.9809 21.5220 0.0000 0.0000 -4.7863 13.8517 -17.2569 3.4257 0.0000 0.0000 -0.7306 0.3897 18.8143 44.2623 0.0000 0.0000 -3.9786 26.1920 22.9060 -24.2181 0.0000 -0.0000
 24.5063 -76.2829 36.9021 0.0379 -0.3440 -87.2024 -0.2197 1.2034 -0.5655 -0.4484 0.8013 -0.1886 3.9006 -1.4378 -4.8162 1.8350 0.7971 -1.2730 1.1155 5.3443 -12.2160 -6.7437 -3.7244 -15.2008 10.5910 -9.7703 7.6968 31.4916 -57.6496 33.0015 0.0000 0.0000 22.5660 -9.3722 11.3829 4.4244 0.0000 0.0000 0.0000 -0.0000 -0.0000 -0.0000 12.5301 7.7536 -7.8262 23.9431 62.7835 -30.3549 -0.0000 -0.0000 -17.5774 -12.7818 -12.8172 5.1637 -0.0000 0.0000 0.0000 0.0000 0.0000 -0.0000 -18.3739 -6.9401 -19.9172 21.4428 0.0000 0.0000 -5.2048 13.8684 -16.8212 3.5603 0.0000 0.0000 -1.5949 -0.3457 19.0883 46.1437 0.0000 0.0000 -1.2682 25.4633 21.5167 -23.9232 0.0000 -0.0000
 24.2722 -76.3552 36.9164 0.2527 -0.2926 -87.8408 -0.2711 0.9124 -0.5356 -0.4755 0.7645 -0.1896 3.8915 -1.4771 -4.7599 1.8307 0.7746 -1.2416 1.1687 5.3595 -12.0966 -6.7200 -3.6411 -15.0925 10.5607 -9.7494 7.6434 31.2342 -57.7200 32.7866 0.0000 0.0000 22.8999 -9.3582 11.4968 4.4586 0.0000 0.0000 -0.0000 -0.0000 -0.0000 0.0000 12.6092 7.6775 -7.7359 24.8022 63.3253 -31.1721 -0.0000 -0.0000 -16.9954 -12.5160 -12.0605 5.3559 0.0000 0.0000 0.0000 -0.0000 -0.0000 0.0000 -17.8460 -7.1878 -19.9274 21.3383 0.0000 0.0000 -5.6485 13.8961 -16.3028 3.6985 0.0000 0.0000 -2.4600 -1.0774 19.2847 47.9748 0.0000 0.0000 1.0008 24.5637 20.3256 -23.0472 0.0000 -0.0000
 24.0441 -76.4262 36.9303 0.4568 -0.2457 -88.4695 -0.3103 0.6355 -0.5046 -0.4976 0.7321 -0.1906 3.8805 -1.5144 -4.7115 1.8272 0.7541 -1.2130 1.2053 5.3715 -11.9831 -6.7058 -3.5625 -14.9872 10.5455 -9.7471 7.5943 30.9404 -57.7713 32.5487 0.0000 0.0000 23.2676 -9.3631 11.6291 4.5012 0.0000 0.0000 0.0000 -0.0000 0.0000 -0.0000 12.6844 7.6298 -7.6524 25.7057 63.7509 -32.0284 -0.0000 -0.0000 -16.4543 -12.2379 -11.2187 5.5718 0.0000 -0.0000 -0.0000 0.0000 -0.0000 0.0000 -17.3228 -7.4067 -19.9668 21.2326 0.0000 0.0000 -6.1076 13.9106 -15.7306 3.8207 0.0000 0.0000 -3.3406 -1.7913 19.3864 49.7484 0.0000 0.0000 2.7033 23.5873 19.4372 -21.7331 0.0000 -0.0000
 23.8221 -76.4966 36.9440 0.6506 -0.1999 -89.0951 -0.3337 0.3718 -0.4712 -0.5140 0.6991 -0.1918 3.8669 -1.5468 -4.6668 1.8242 0.7365 -1.1884 1.2241 5.3810 -11.8731 -6.7029 -3.4856 -14.8851 10.5464 -9.7595 7.5538 30.6288 -57.7953 32.3070 0.0000 0.0000 23.6603 -9.3761 11.7829 4.5496 0.0000 0.0000 0.0000 0.0000 -0.0000 -0.0000 12.7555 7.6136 -7.5745 26.6367 64.0617 -32.9069 -0.0000 -0.0000 -15.9579 -11.9620 -10.3059 5.8046 0.0000 -0.0000 -0.0000 -0.0000 0.0000 -0.0000 -16.8100 -7.6009 -19.9950 21.1377 0.0000 0.0000 -6.5683 13.8923 -15.1325 3.9116 0.0000 0.0000 -4.2281 -2.4773 19.3871 51.4476 0.0000 0.0000 3.7748 22.6229 18.9219 -20.1406 0.0000 -0.0000
 23.6073 -76.5672 36.9578 0.8315 -0.1670 -89.7245 -0.3520 0.1230 -0.4374 -0.5256 0.6633 -0.1938 3.8517 -1.5732 -4.6192 1.8204 0.7207 -1.1651 1.2256 5.3908 -11.7650 -6.7105 -3.4092 -14.7868 10.5647 -9.7802 7.5219 30.3182 -57.7851 32.0853 0.0000 0.0000 24.0666 -9.3879 11.9593 4.6014 0.0000 -0.0000 -0.0000 -0.0000 0.0000 -0.0000 12.8226 7.6317 -7.5051 27.5655 64.2649 -33.7787 -0.0000 -0.0000 -15.5082 -11.7034 -9.3410 6.0445 0.0000 -0.0000 -0.0000 0.0000 0.0000 -0.0000 -16.3319 -7.7708 -19.9732 21.0682 0.0000 0.0000 -7.0143 13.8278 -14.5413 3.9615 0.0000 0.0000 -5.1340 -3.1238 19.2840 53.0573 0.0000 0.0000 4.2046 21.7371 18.8221 -18.4091 0.0000 -0.0000
 23.3957 -76.6385 36.9732 1.0011 -0.1023 -90.3687 -0.3284 -0.1152 -0.3988 -0.5267 0.6215 -0.1944 3.8322 -1.5874 -4.5650 1.8165 0.7092 -1.1475 1.2148 5.3940 -11.6569 -6.7330 -3.3270 -14.6880 10.5992 -9.8027 7.5065 30.0231 -57.7471 31.8920 0.0000 0.0000 24.4830 -9.3803 12.1571 4.6490 0.0000 -0.0000 -0.0000 -0.0000 -0.0000 0.0000 12.8839 7.6725 -7.4370 28.4688 64.3847 -34.6195 -0.0000 -0.0000 -15.1075 -11.4688 -8.3476 6.2823 -0.0000 0.0000 -0.0000 0.0000 0.0000 -0.0000 -15.8312 -7.9255 -19.8755 21.0101 0.0000 0.0000 -7.4310 13.7110 -13.9752 3.9699 0.0000 0.0000 -5.9891 -3.7274 19.0920 54.5363 0.0000 0.0000 4.0351 20.9636 19.1403 -16.6439 0.0000 -0.0000
 23.1919 -76.7111 36.9893 1.1511 -0.0645 -91.0311 -0.3162 -0.3362 -0.3601 -0.5240 0.5774 -0.1957 3.8135 -1.5922 -4.4986 1.8109 0.7008 -1.1303 1.1907 5.3926 -11.5485 -6.7627 -3.2410 -14.5884 10.6503 -9.8214 7.5030 29.7665 -57.6727 31.7602 0.0000 0.0000 24.8935 -9.3508 12.3796 4.6919 -0.0000 -0.0000 0.0000 -0.0000 -0.0000 -0.0000 12.9414 7.7370 -7.3749 29.3123 64.4329 -35.4015 -0.0000 -0.0000 -14.7529 -11.2705 -7.3571 6.5081 0.0000 0.0000 0.0000 0.0000 -0.0000 -0.0000 -15.3900 -8.0566 -19.6771 20.9869 0.0000 0.0000 -7.8050 13.5450 -13.4676 3.9407 0.0000 0.0000 -6.8669 -4.2734 18.8096 55.8820 0.0000 0.0000 3.3352 20.3046 19.8732 -14.9132 0.0000 -0.0000
 22.9899 -76.7855 37.0081 1.2768 0.0080 -91.7226 -0.2669 -0.5363 -0.3213 -0.5104 0.5278 -0.1945 3.7950 -1.5803 -4.4120 1.8040 0.6915 -1.1123 1.1624 5.3898 -11.4383 -6.8038 -3.1495 -14.4892 10.7071 -9.8196 7.5080 29.5632 -57.5852 31.6929 0.0000 0.0000 25.2959 -9.2807 12.6187 4.7235 0.0000 -0.0000 0.0000 -0.0000 0.0000 -0.0000 12.9938 7.8154 -7.3259 30.0575 64.4443 -36.0776 -0.0000 -0.0000 -14.4512 -11.1078 -6.4016 6.7170 -0.0000 0.0000 0.0000 0.0000 0.0000 0.0000 -14.9236 -8.1640 -19.3767 20.9748 0.0000 0.0000 -8.1342 13.3369 -13.0150 3.8848 0.0000 0.0000 -7.6715 -4.7547 18.4625 57.0419 0.0000 0.0000 2.2138 19.7344 20.9709 -13.2664 0.0000 -0.0000
 22.7921 -76.8616 37.0288 1.3755 0.0780 -92.4437 -0.2166 -0.7148 -0.2818 -0.4905 0.4795 -0.1930 3.7795 -1.5566 -4.3082 1.7957 0.6859 -1.0950 1.1298 5.3761 -11.3258 -6.8497 -3.0521 -14.3832 10.7779 -9.7983 7.5243 29.4308 -57.4745 31.7211 0.0000 0.0000 25.6783 -9.1794 12.8781 4.7433 0.0000 -0.0000 0.0000 0.0000 0.0000 0.0000 13.0455 7.8949 -7.2747 30.6956 64.4376 -36.6569 -0.0000 -0.0000 -14.1911 -10.9820 -5.5165 6.9001 -0.0000 -0.0000 0.0000 0.0000 0.0000 0.0000 -14.4773 -8.2461 -18.9755 20.9776 0.0000 0.0000 -8.4144 13.1007 -12.6298 3.8150 0.0000 0.0000 -8.4474 -5.1698 18.0559 58.0118 0.0000 0.0000 0.7868 19.2138 22.3758 -11.7417 0.0000 -0.0000
 22.5966 -76.9395 37.0521 1.4393 0.1547 -93.1981 -0.1622 -0.8651 -0.2438 -0.4646 0.4315 -0.1898 3.7689 -1.5151 -4.1830 1.7868 0.6802 -1.0754 1.0985 5.3552 -11.2112 -6.8977 -2.9519 -14.2716 10.8431 -9.7502 7.5502 29.3683 -57.3637 31.8218 0.0000 0.0000 26.0439 -9.0354 13.1437 4.7483 -0.0000 -0.0000 -0.0000 0.0000 -0.0000 -0.0000 13.0924 7.9693 -7.2339 31.1864 64.4440 -37.0877 -0.0000 -0.0000 -13.9789 -10.8866 -4.7340 7.0542 0.0000 -0.0000 -0.0000 -0.0000 0.0000 -0.0000 -14.0358 -8.2945 -18.4872 20.9878 0.0000 0.0000 -8.6528 12.8508 -12.3021 3.7455 0.0000 0.0000 -9.1740 -5.5116 17.6050 58.7696 0.0000 0.0000 -0.8163 18.7001 24.0070 -10.3768 0.0000 -0.0000
 22.4024 -77.0189 37.0780 1.4690 0.2416 -93.9849 -0.1051 -0.9887 -0.2064 -0.4333 0.3891 -0.1839 3.7654 -1.4581 -4.0405 1.7772 0.6762 -1.0563 1.0705 5.3222 -11.0936 -6.9447 -2.8497 -14.1496 10.9083 -9.6746 7.5828 29.3873 -57.2507 32.0164 0.0000 0.0000 26.3869 -8.8605 13.4122 4.7384 -0.0000 -0.0000 -0.0000 -0.0000 -0.0000 -0.0000 13.1352 8.0287 -7.1925 31.5171 64.4840 -37.3633 -0.0000 -0.0000 -13.8109 -10.8124 -4.0784 7.1779 0.0000 -0.0000 0.0000 -0.0000 0.0000 -0.0000 -13.5874 -8.3091 -17.9335 20.9933 0.0000 0.0000 -8.8571 12.6020 -12.0178 3.6885 0.0000 0.0000 -9.8420 -5.7854 17.1201 59.3081 0.0000 0.0000 -2.4714 18.1586 25.7700 -9.2073 0.0000 -0.0000
 22.2071 -77.0986 37.1066 1.4718 0.3548 -94.8004 -0.0350 -1.0882 -0.1716 -0.3960 0.3516 -0.1767 3.7689 -1.3853 -3.8847 1.7678 0.6716 -1.0343 1.0505 5.2791 -10.9722 -6.9904 -2.7474 -14.0170 10.9641 -9.5674 7.6208 29.4896 -57.1487 32.2943 0.0000 0.0000 26.7095 -8.6599 13.6739 4.7174 0.0000 -0.0000 0.0000 -0.0000 0.0000 -0.0000 13.1731 8.0660 -7.1536 31.6694 64.5788 -37.4606 -0.0000 -0.0000 -13.6885 -10.7480 -3.5703 7.2707 -0.0000 -0.0000 0.0000 -0.0000 -0.0000 0.0000 -13.1021 -8.2954 -17.3420 20.9748 0.0000 0.0000 -9.0359 12.3663 -11.7569 3.6528 0.0000 0.0000 -10.4275 -6.0046 16.6093 59.6255 0.0000 0.0000 -4.0710 17.5696 27.5650 -8.2602 0.0000 -0.0000
 22.0119 -77.1795 37.1376 1.4325 0.4752 -95.6426 0.0301 -1.1516 -0.1394 -0.3595 0.3231 -0.1661 3.7820 -1.2998 -3.7157 1.7601 0.6683 -1.0152 1.0357 5.2281 -10.8468 -7.0265 -2.6514 -13.8718 11.0025 -9.4359 7.6680 29.6593 -57.0609 32.6292 0.0000 0.0000 27.0173 -8.4403 13.9153 4.6853 0.0000 0.0000 0.0000 -0.0000 0.0000 0.0000 13.2141 8.0839 -7.1110 31.6485 64.7182 -37.3992 -0.0000 -0.0000 -13.6007 -10.6999 -3.2235 7.3277 -0.0000 -0.0000 -0.0000 0.0000 -0.0000 0.0000 -12.6091 -8.2311 -16.7335 20.9456 0.0000 0.0000 -9.2075 12.1522 -11.4974 3.6425 0.0000 0.0000 -10.9536 -6.1532 16.0767 59.7275 0.0000 0.0000 -5.5329 16.9293 29.3157 -7.5480 0.0000 -0.0000
